<svg xmlns="http://www.w3.org/2000/svg" viewBox="0 0 32 32" id="Ok-Hand--Streamline-Emojitwo" height="32" width="32">
  <desc>
    Ok Hand Streamline Emoji: https://streamlinehq.com
  </desc>
  <title>OK hand</title>
  <g fill="#ffdd67">
    <path d="M24.3 16.4 21 18.75s-1.65 -4.6 -2.9 -7.55c-0.5 -1.2 -2.1 -1.6 -2.85 -3.3C13.95 5 15.5 2.5 17 4.3c1.75 2.1 4.35 3.65 4.9 4.85 0.85 2 2.4 7.25 2.4 7.25" stroke-width="0.5"></path>
    <path d="M26.9 18.3c0.25 1.6 0.05 4.05 -1.35 6.95 0 0 -2.85 -3.4 -3.2 -5 0 0 -0.8 -5.95 -1.65 -9.75 -0.35 -1.55 -2.15 -2.45 -2.6 -4.65 -0.8 -3.8 1.6 -6.45 3 -3.9 1.6 2.95 4.3 5.45 4.65 7 0.6 2.65 0.85 7.05 1.15 9.35" stroke-width="0.5"></path>
  </g>
  <path fill="#eba352" d="M22.7 15.3s-0.25 -2.25 -1.1 -6.05c-0.35 -1.55 -2.15 -2.45 -2.6 -4.65 -0.3 -1.3 -0.2 -2.5 0.15 -3.35 -0.85 0.65 -1.55 2.45 -1.1 4.65 0.45 2.2 2.3 3.1 2.6 4.65 0.35 1.65 0.65 3.35 0.65 3.35l-2.5 -0.95 3.9 2.35" stroke-width="0.5"></path>
  <path fill="#ffdd67" d="M25.7 17.7c-3.3 -3 -7 -4.85 -9.4 -6 -3.55 -1.75 -2.6 0.65 -8.65 2.25 -0.8 0.2 -1.75 0.8 -1 2.3 0.7 1.45 6.4 0.35 7.3 -0.5 0 0 2.4 2.95 4.8 2.85 0 0 -0.4 1.95 0.15 2.9 0 0 -3.4 1.75 -4.85 3.3l-4 -2.7c-0.3 -4.15 -1.05 -5.4 -3.1 -5.2 -1.9 0.2 -1.7 2 -1.65 3.45 0.05 2.65 -0.65 3.1 0 4.15 2.45 4 5.6 6.5 11.4 6.5 2.15 0 3.55 -0.05 4.9 -0.7 2.2 -1.15 7.75 -9.25 4.1 -12.6" stroke-width="0.5"></path>
  <g fill="#eba352">
    <path d="M26.35 18.5c1.25 3.8 -3.2 10.05 -5.15 11 -1.35 0.65 -2.7 0.7 -4.9 0.7 -5.75 0 -8.85 -2.45 -11.3 -6.4 0.05 0.2 0.15 0.45 0.25 0.65C7.75 28.5 10.9 31 16.7 31c2.15 0 3.55 -0.05 4.9 -0.7 2.05 -1.05 7 -8.1 4.75 -11.8" stroke-width="0.5"></path>
    <path d="M9.3 22.2s3.75 2.4 4.65 2.55L10 22.1c0.15 -4.2 -1.05 -5.55 -3.1 -5.2 -0.15 0.05 -0.3 0.05 -0.45 0.1 2.05 -0.25 3 1.1 2.85 5.2" stroke-width="0.5"></path>
    <path d="M13.95 15.75s2.4 2.9 4.8 2.85v-0.55c-2.4 0.05 -4.8 -2.85 -4.8 -2.85 -0.9 0.9 -6.6 2 -7.3 0.5 -0.1 -0.25 -0.2 -0.5 -0.25 -0.7 -0.05 0.3 0 0.7 0.25 1.25 0.7 1.45 6.4 0.35 7.3 -0.5" stroke-width="0.5"></path>
  </g>
</svg>